<?xml version="1.0" encoding="UTF-8"?>
<svg width="423px" height="129px" viewBox="0 0 423 129" version="1.1" xmlns="http://www.w3.org/2000/svg" xmlns:xlink="http://www.w3.org/1999/xlink">
    <!-- Generator: Sketch 42 (36781) - http://www.bohemiancoding.com/sketch -->
    <title>Group 2</title>
    <desc>Created with Sketch.</desc>
    <defs></defs>
    <g id="pouzite" stroke="none" stroke-width="1" fill="none" fill-rule="evenodd">
        <g id="Windy_community_krivky" transform="translate(-28.000000, -24.000000)">
            <g id="Group-2" transform="translate(28.000000, 24.000000)">
                <g id="Group">
                    <circle id="Oval-path" fill="#A51E25" cx="60" cy="60" r="60"></circle>
                    <path d="M37.125,34.53 L37.215,36.03 L37.485,40.23 C37.74,43.86 38.1,49.05 38.73,55.23 C39.045,58.23 39.405,61.635 39.93,65.025 C39.93,65.445 40.065,65.88 40.125,66.3 L40.35,67.545 L40.47,68.16 L40.605,68.805 C40.695,69.21 40.785,69.645 40.89,70.05 C41.303778,71.7741804 41.8044163,73.4763507 42.39,75.15 C43.5065923,78.5752936 45.1350226,81.8119252 47.22,84.75 C48.1643424,86.0592082 49.3322389,87.19156 50.67,88.095 C51.2444693,88.4701189 51.8712472,88.7582346 52.53,88.95 C52.8443101,89.0371427 53.1654705,89.0973603 53.49,89.13 L54,89.13 L54.54,89.13 C54.7148013,89.1417922 54.8901987,89.1417922 55.065,89.13 L55.635,89.04 L56.22,88.92 L56.82,88.755 C57.6488009,88.4996702 58.4522202,88.1682598 59.22,87.765 C60.8780141,86.8840224 62.4369043,85.828 63.87,84.615 C66.8147765,82.0857692 69.5027992,79.272138 71.895,76.215 C74.295,73.215 76.395,70.14 78.39,67.14 C80.385,64.14 82.065,61.23 83.58,58.5 C86.58,53.04 88.89,48.3 90.345,45 C91.1296232,43.247926 91.8205972,41.4553992 92.415,39.63 C92.0142486,41.5152702 91.5135418,43.3778993 90.915,45.21 C89.79,48.72 88.02,53.685 85.5,59.49 C84.24,62.4 82.785,65.49 81.12,68.76 C79.455,72.03 77.565,75.375 75.375,78.765 C73.1201534,82.3287258 70.5174148,85.6600303 67.605,88.71 C66.0112164,90.3535772 64.2461732,91.8219322 62.34,93.09 C61.3145061,93.7662252 60.2301137,94.3485841 59.1,94.83 C58.815,94.965 58.515,95.07 58.215,95.175 C57.915,95.28 57.6,95.385 57.285,95.475 C56.97,95.565 56.655,95.655 56.325,95.73 C55.9835274,95.8124974 55.6380816,95.8775814 55.29,95.925 L54.27,96.045 L53.88,96.045 L53.28,96.045 C52.556618,96.0515218 51.8339981,95.9963217 51.12,95.88 C49.7278874,95.6531746 48.3777944,95.2183133 47.115,94.59 C44.8491372,93.417344 42.8159267,91.8416059 41.115,89.94 C39.5529955,88.2311013 38.1567331,86.3777889 36.945,84.405 C35.7971954,82.5505634 34.7652241,80.6268886 33.855,78.645 C32.9774311,76.7456684 32.1964345,74.8031897 31.515,72.825 C31.35,72.33 31.185,71.865 31.035,71.325 L30.81,70.605 C30.735,70.335 30.675,70.11 30.6,69.87 L30.21,68.37 C30.09,67.89 29.985,67.44 29.865,66.975 C28.98,63.285 28.365,59.88 27.72,56.73 C26.55,50.43 25.74,45.21 25.185,41.535 L24.555,37.275 L24.345,35.775 C23.8438016,32.2541847 26.2916847,28.9936984 29.8125,28.4925 C33.3333153,27.9913016 36.5938016,30.4391847 37.095,33.96 L37.095,34.485 L37.125,34.53 Z" id="Shape" fill="#FFFFFF"></path>
                    <path d="M58.74,35.625 L58.59,36.96 C58.5,37.845 58.365,39.165 58.23,40.86 C58.095,42.555 57.945,44.61 57.825,46.965 C57.705,49.32 57.6,51.99 57.585,54.885 C57.57,57.78 57.585,60.885 57.81,64.17 L57.99,66.645 L58.11,67.935 L58.23,69.225 C58.41,70.95 58.62,72.705 58.875,74.445 C59.13,76.185 59.475,77.925 59.895,79.62 C60.2801689,81.2468369 60.8175366,82.8338293 61.5,84.36 C62.0567697,85.6564564 62.8795137,86.8215847 63.915,87.78 C64.3607192,88.1661814 64.8676577,88.4754139 65.415,88.695 C65.7019705,88.8094765 65.997999,88.8997903 66.3,88.965 L66.78,89.055 L67.035,89.055 L67.725,89.055 L68.175,89.055 C68.49936,89.0211891 68.8204235,88.9609897 69.135,88.875 C69.8482669,88.6702118 70.5334678,88.3779938 71.175,88.005 C72.6489038,87.1208708 73.9961679,86.0410412 75.18,84.795 C77.6933592,82.122936 79.9158234,79.1914957 81.81,76.05 C83.745,72.945 85.425,69.795 86.94,66.765 C88.455,63.735 89.79,60.765 90.975,58.05 C93.33,52.575 95.085,47.91 96.285,44.625 C96.885,42.99 97.335,41.625 97.635,40.8 L98.1,39.45 L97.785,40.845 C97.575,41.76 97.26,43.095 96.855,44.79 C96.015,48.18 94.77,53.025 93,58.785 C92.115,61.665 91.08,64.785 89.88,68.01 C88.68,71.235 87.3,74.67 85.635,78.12 C83.9340783,81.7769115 81.8472297,85.2415831 79.41,88.455 C78.040469,90.2380026 76.4359035,91.8274306 74.64,93.18 C73.6291397,93.9257746 72.5310174,94.5453574 71.37,95.025 C70.7473013,95.2805357 70.1052805,95.486183 69.45,95.64 C69.12,95.715 68.775,95.775 68.43,95.835 L67.845,95.835 L67.425,95.835 L66.39,95.835 L65.385,95.835 C63.2950007,95.6339238 61.2888034,94.911899 59.55,93.735 C58.4369909,92.9865597 57.4281908,92.0937717 56.55,91.08 C55.7535974,90.1442426 55.0408627,89.1403908 54.42,88.08 C53.2999092,86.1740105 52.3656131,84.1647716 51.63,82.08 C50.91,80.085 50.34,78.135 49.86,76.215 C49.38,74.295 48.96,72.42 48.585,70.59 L48.315,69.225 L48.06,67.89 L47.61,65.19 C47.07,61.635 46.725,58.29 46.47,55.215 C46.215,52.14 46.065,49.305 45.975,46.815 C45.885,44.325 45.84,42.135 45.825,40.335 C45.81,38.535 45.825,37.125 45.825,36.135 L45.825,34.635 C45.8732309,32.3333164 47.1457316,30.232204 49.1631634,29.1231313 C51.1805953,28.0140587 53.6364624,28.0655204 55.6056634,29.2581313 C57.5748644,30.4507423 58.7582309,32.6033164 58.71,34.905 L58.71,35.475 L58.74,35.625 Z" id="Shape" fill="#FFFFFF"></path>
                </g>
                <g id="Group-3" transform="translate(145.000000, 6.000000)" fill="#666666">
                    <path d="M73.864,64.072 C81.928,30.664 87.016,7.816 87.016,5.992 C87.016,2.92 83.944,1 80.968,1 C78.568,1 76.168,2.344 75.592,5.128 C64.744,60.232 64.168,60.232 62.824,60.232 C62.344,60.232 61.864,59.656 61.576,58.024 C59.56,46.888 54.76,19.24 52.648,8.296 C51.784,3.784 47.56,1.192 43.336,1.192 C39.4,1.192 35.464,3.496 34.504,8.68 C32.008,21.448 26.824,50.536 25,58.504 C24.712,59.944 24.04,61 23.272,61 C21.928,61 21.736,60.424 12.136,5.224 C11.656,2.44 9.064,1 6.376,1 C3.496,1 0.52,2.728 0.52,6.088 C0.52,7.816 1.864,15.112 12.136,63.688 C13.576,70.504 18.088,73.864 22.792,73.864 C27.4,73.864 32.104,70.504 33.832,63.592 C36.904,51.784 41.512,24.52 42.76,15.784 C42.952,14.728 43.24,14.056 43.528,14.056 C43.816,14.056 44.104,14.536 44.296,15.784 C45.352,23.848 50.344,53.512 52.84,63.688 C54.568,70.696 58.888,73.864 63.208,73.864 C67.72,73.864 72.328,70.408 73.864,64.072 Z M103.048,13.96 C107.176,13.96 109.768,10.6 109.768,7.144 C109.768,3.496 106.504,0.616 103.048,0.616 C100.36,0.616 96.328,2.44 96.328,7.144 C96.328,11.56 99.304,13.96 103.048,13.96 Z M108.232,69.448 L108.232,69.256 C108.136,63.976 108.04,57.16 108.04,50.536 C108.04,42.472 108.136,34.888 108.232,30.952 L108.232,30.76 C108.232,27.688 105.64,26.152 103.144,26.152 C100.264,26.152 97.864,27.88 97.96,31.048 C98.056,33.64 98.056,37.48 98.056,41.8 C98.056,50.536 97.96,61.48 97.96,69.448 C97.96,72.712 100.456,74.344 103.048,74.344 C105.64,74.344 108.232,72.712 108.232,69.448 Z M155.08,69.256 C155.08,72.328 157.576,74.056 160.072,74.056 C162.568,74.056 164.968,72.424 165.064,68.968 C165.16,66.952 165.16,64.264 165.16,61.288 C165.16,54.184 164.968,45.64 164.872,42.184 C164.488,31.432 156.712,26.152 148.648,26.152 C143.656,26.152 138.568,28.072 135.016,31.912 C134.824,32.104 134.632,32.296 134.536,32.296 C134.44,32.296 134.44,32.2 134.44,32.104 L134.44,31.816 C134.44,31.528 134.536,31.24 134.536,30.856 C134.536,27.784 132.04,26.344 129.64,26.344 C127.24,26.344 124.456,27.784 124.456,30.664 L124.456,30.856 C124.648,37.288 124.744,42.28 124.744,48.04 C124.744,53.704 124.648,60.04 124.36,69.16 L124.36,69.352 C124.36,72.424 126.856,74.056 129.448,74.056 C133.288,74.056 134.44,71.176 134.344,69.16 C134.152,62.344 134.056,57.256 134.056,53.32 C134.056,50.632 134.056,48.424 134.152,46.696 C134.44,40.264 141.448,35.08 147.304,35.08 C151.336,35.08 154.696,37.48 155.08,43.432 C155.176,44.968 155.272,48.232 155.272,52.072 C155.272,57.928 155.176,65.224 155.08,69.16 L155.08,69.256 Z M226.312,68.488 C226.312,71.56 223.528,73.768 220.744,73.768 C218.536,73.768 216.712,73 215.368,67.72 C215.272,67.336 215.176,67.144 214.984,67.144 C214.888,67.144 214.696,67.336 214.504,67.528 C210.76,71.56 205.576,74.248 199.336,74.248 C186.088,74.248 176.008,64.648 176.008,50.152 C176.008,36.136 186.088,26.056 199.336,26.056 C204.712,26.056 209.224,28.072 212.776,31.24 C212.872,31.336 213.064,31.336 213.16,31.336 C213.352,31.336 213.448,31.24 213.448,30.952 C213.448,19.816 213.256,10.024 213.16,5.992 C213.064,3.016 215.272,1 218.056,1 C220.552,1 223.048,2.632 223.048,5.992 L223.048,6.472 C222.856,9.736 222.76,16.552 222.76,24.616 C222.76,60.232 222.856,60.52 225.64,65.896 C226.12,66.76 226.312,67.624 226.312,68.488 Z M199.528,65.32 C207.208,65.32 213.352,59.56 213.352,50.152 C213.352,40.648 207.208,34.792 199.528,34.792 C191.848,34.792 185.704,40.648 185.704,50.152 C185.704,59.56 191.848,65.32 199.528,65.32 Z M258.376,77.896 C264.04,64.264 272.296,44.68 276.904,33.448 C277.288,32.584 277.384,31.816 277.384,31.144 C277.384,28.168 274.792,26.44 272.2,26.44 C270.28,26.44 268.264,27.4 267.496,29.704 C263.272,42.088 256.264,59.944 255.592,59.944 C255.016,59.944 252.52,53.8 243.592,29.512 C242.824,27.4 241,26.44 239.272,26.44 C236.776,26.44 234.184,28.36 234.184,31.336 C234.184,32.008 234.28,32.68 234.568,33.448 C236.872,39.784 246.568,62.824 249.448,70.024 C249.832,70.888 249.928,71.752 249.928,72.52 C249.928,73.192 249.832,73.672 249.736,74.056 C245.704,83.368 242.728,87.784 236.392,88.072 C233.32,88.168 232.072,90.568 232.072,92.968 C232.072,95.368 233.32,98.056 236.392,98.056 C247.528,97.96 253,90.76 258.376,77.896 Z" id="Windy"></path>
                    <path d="M25.168,110.928 C25.168,110.384 24.688,109.936 24.144,109.936 C23.856,109.936 23.568,110.064 23.312,110.416 C22.448,111.632 20.88,112.24 19.28,112.24 C15.664,112.24 13.68,109.296 13.68,106.288 C13.68,102.864 16.016,100.272 19.152,100.272 C20.528,100.272 21.904,100.784 22.736,101.84 C22.992,102.16 23.28,102.288 23.568,102.288 C24.048,102.288 24.496,101.872 24.496,101.328 C24.496,100.368 22.384,98.608 19.152,98.608 C14.8,98.608 11.792,102.192 11.792,106.448 C11.792,110.256 14.384,114 19.312,114 C22.768,114 25.168,111.856 25.168,110.928 Z M40.472,114.032 C36.216,114.032 33.08,110.96 33.08,106.352 C33.08,101.904 36.216,98.704 40.472,98.704 C44.728,98.704 47.928,101.904 47.928,106.352 C47.928,110.96 44.728,114.032 40.472,114.032 Z M40.472,112.304 C43.544,112.304 46.04,109.936 46.04,106.352 C46.04,102.736 43.544,100.368 40.472,100.368 C37.4,100.368 34.936,102.736 34.936,106.352 C34.936,109.936 37.4,112.304 40.472,112.304 Z M76.256,112.976 C76.256,113.584 76.736,113.936 77.216,113.936 C77.664,113.936 78.144,113.584 78.144,112.88 L78.144,111.44 C78.144,108.944 78.112,104.88 78.08,103.536 C77.984,100.4 75.712,98.736 73.248,98.736 C71.392,98.736 69.472,99.664 68.256,101.552 C67.616,99.632 65.824,98.736 63.968,98.736 C62.336,98.736 60.608,99.44 59.584,100.752 C59.552,100.816 59.52,100.848 59.488,100.848 C59.456,100.848 59.456,100.784 59.456,100.656 L59.456,99.792 C59.456,99.184 59.008,98.896 58.56,98.896 C58.08,98.896 57.632,99.184 57.632,99.76 L57.632,99.792 C57.664,100.976 57.664,102.48 57.664,104.048 C57.664,107.024 57.632,110.384 57.568,112.912 L57.568,112.944 C57.568,113.584 58.048,113.936 58.528,113.936 C58.976,113.936 59.424,113.616 59.424,112.976 L59.424,112.944 C59.392,111.504 59.36,109.104 59.36,107.152 C59.36,105.936 59.36,104.88 59.392,104.336 C59.488,101.968 61.696,100.336 63.712,100.336 C65.28,100.336 66.752,101.36 66.88,103.856 C66.912,104.4 66.912,105.712 66.912,107.216 C66.912,109.264 66.912,111.664 66.88,112.944 L66.88,112.976 C66.88,113.584 67.328,113.872 67.776,113.872 C68.256,113.872 68.736,113.552 68.736,112.976 L68.736,112.944 C68.704,111.28 68.672,108.88 68.672,106.928 C68.672,105.744 68.672,104.72 68.704,104.176 C68.8,102 71.04,100.432 73.088,100.432 C74.656,100.432 76.128,101.392 76.256,103.856 C76.288,104.4 76.288,105.712 76.288,107.216 C76.288,109.264 76.288,111.664 76.256,112.944 L76.256,112.976 Z M107.464,112.976 C107.464,113.584 107.944,113.936 108.424,113.936 C108.872,113.936 109.352,113.584 109.352,112.88 L109.352,111.44 C109.352,108.944 109.32,104.88 109.288,103.536 C109.192,100.4 106.92,98.736 104.456,98.736 C102.6,98.736 100.68,99.664 99.464,101.552 C98.824,99.632 97.032,98.736 95.176,98.736 C93.544,98.736 91.816,99.44 90.792,100.752 C90.76,100.816 90.728,100.848 90.696,100.848 C90.664,100.848 90.664,100.784 90.664,100.656 L90.664,99.792 C90.664,99.184 90.216,98.896 89.768,98.896 C89.288,98.896 88.84,99.184 88.84,99.76 L88.84,99.792 C88.872,100.976 88.872,102.48 88.872,104.048 C88.872,107.024 88.84,110.384 88.776,112.912 L88.776,112.944 C88.776,113.584 89.256,113.936 89.736,113.936 C90.184,113.936 90.632,113.616 90.632,112.976 L90.632,112.944 C90.6,111.504 90.568,109.104 90.568,107.152 C90.568,105.936 90.568,104.88 90.6,104.336 C90.696,101.968 92.904,100.336 94.92,100.336 C96.488,100.336 97.96,101.36 98.088,103.856 C98.12,104.4 98.12,105.712 98.12,107.216 C98.12,109.264 98.12,111.664 98.088,112.944 L98.088,112.976 C98.088,113.584 98.536,113.872 98.984,113.872 C99.464,113.872 99.944,113.552 99.944,112.976 L99.944,112.944 C99.912,111.28 99.88,108.88 99.88,106.928 C99.88,105.744 99.88,104.72 99.912,104.176 C100.008,102 102.248,100.432 104.296,100.432 C105.864,100.432 107.336,101.392 107.464,103.856 C107.496,104.4 107.496,105.712 107.496,107.216 C107.496,109.264 107.496,111.664 107.464,112.944 L107.464,112.976 Z M132.144,99.76 C132.144,99.184 131.632,98.864 131.152,98.864 C130.672,98.864 130.224,99.152 130.224,99.728 L130.224,99.76 C130.256,101.456 130.288,103.12 130.288,104.816 C130.288,105.904 130.256,106.992 130.224,108.08 C130.16,110.704 127.728,112.4 125.488,112.4 C123.696,112.4 122.032,111.312 121.872,108.688 C121.84,108.176 121.808,107.056 121.808,105.712 C121.808,103.632 121.84,101.104 121.872,99.76 L121.872,99.728 C121.872,99.152 121.392,98.832 120.912,98.832 C120.432,98.832 119.984,99.12 119.984,99.76 C119.952,100.432 119.952,101.36 119.952,102.352 C119.952,104.784 120.016,107.76 120.048,108.912 C120.144,112.432 122.704,114.032 125.36,114.032 C127.376,114.032 129.424,113.136 130.512,111.472 C130.544,111.408 130.576,111.408 130.608,111.408 C130.64,111.408 130.64,111.44 130.672,111.568 C130.736,112.112 131.184,113.808 132.24,113.808 C132.752,113.808 133.232,113.424 133.232,112.912 C133.232,112.72 133.168,112.496 133.008,112.272 C132.176,111.088 132.048,109.616 132.048,107.568 C132.048,104.88 132.08,102.256 132.144,99.792 L132.144,99.76 Z M153.176,113.008 C153.176,113.584 153.656,113.904 154.136,113.904 C154.616,113.904 155.064,113.616 155.064,112.976 C155.096,112.112 155.096,110.8 155.096,109.456 C155.096,107.248 155.064,104.88 155.032,103.856 C154.904,100.464 152.344,98.736 149.688,98.736 C147.928,98.736 146.104,99.504 144.952,101.04 C144.92,101.104 144.856,101.136 144.824,101.136 C144.824,101.136 144.792,101.104 144.792,101.008 L144.792,99.792 C144.792,99.184 144.344,98.928 143.896,98.928 C143.384,98.928 142.872,99.248 142.872,99.76 L142.872,99.792 C142.904,101.2 142.936,102.864 142.936,104.656 C142.936,107.376 142.872,110.352 142.808,112.944 L142.808,112.976 C142.808,113.552 143.32,113.872 143.8,113.872 C144.28,113.872 144.728,113.584 144.728,113.008 L144.728,112.976 C144.696,111.824 144.696,110.768 144.696,109.744 C144.696,107.536 144.728,105.776 144.76,104.784 C144.824,102.224 147.352,100.496 149.592,100.496 C151.384,100.496 153.016,101.584 153.176,104.176 C153.208,104.688 153.24,105.808 153.24,107.12 C153.24,109.136 153.208,111.632 153.176,112.976 L153.176,113.008 Z M168.416,91.696 C168.416,90.48 167.328,90.224 166.848,90.224 C166.208,90.224 165.312,90.704 165.312,91.696 C165.312,91.888 165.312,93.264 166.816,93.264 C167.616,93.264 168.416,92.688 168.416,91.696 Z M167.872,112.848 C167.84,111.056 167.808,108.688 167.808,106.416 C167.808,103.664 167.84,101.04 167.872,99.696 L167.872,99.664 C167.872,99.088 167.36,98.8 166.88,98.8 C166.368,98.8 165.856,99.12 165.856,99.696 L165.856,99.728 C165.888,100.624 165.888,101.936 165.888,103.44 C165.888,106.416 165.856,110.16 165.856,112.88 C165.856,113.52 166.368,113.84 166.848,113.84 C167.36,113.84 167.872,113.52 167.872,112.88 L167.872,112.848 Z M185.192,100.72 C185.8,100.72 186.088,100.304 186.088,99.888 C186.088,99.472 185.8,99.056 185.192,99.056 L182.344,99.056 C181.928,99.056 181.864,99.056 181.864,98.704 C181.864,98.704 181.928,96.144 181.928,95.216 C181.928,94.544 181.48,94.224 181,94.224 C180.552,94.224 180.072,94.544 180.072,95.152 L180.072,95.952 C180.072,97.072 180.04,98.608 180.04,98.736 C180.04,99.024 179.976,99.056 179.688,99.056 L177.832,99.056 C177.224,99.056 176.936,99.472 176.936,99.888 C176.936,100.304 177.224,100.72 177.832,100.72 L179.72,100.72 C179.944,100.72 180.04,100.784 180.04,101.104 L180.04,101.616 C180.04,103.184 179.976,107.088 179.976,109.136 C179.976,110.544 179.976,114.032 184.072,114.032 C185.352,114.032 186.12,113.872 186.12,113.04 C186.12,112.624 185.832,112.208 185.352,112.208 L185.224,112.208 C184.904,112.24 184.616,112.272 184.328,112.272 C181.832,112.272 181.768,110.576 181.768,108.08 C181.768,105.712 181.864,102.416 181.864,101.2 C181.864,100.784 181.864,100.72 182.376,100.72 L185.192,100.72 Z M200.528,115.696 C202.48,111.024 205.392,104.176 206.96,100.336 C207.024,100.176 207.056,100.048 207.056,99.92 C207.056,99.344 206.544,98.992 206,98.992 C205.616,98.992 205.2,99.184 205.04,99.696 C205.008,99.824 200.848,111.472 200.304,111.472 C200.208,111.472 200.112,111.312 199.984,111.024 C199.056,108.912 196.272,101.744 195.472,99.6 C195.312,99.152 194.96,98.96 194.576,98.96 C194.096,98.96 193.616,99.312 193.616,99.856 C193.616,99.984 193.616,100.112 193.68,100.272 C194.48,102.448 198.096,111.024 199.088,113.488 C199.184,113.712 199.248,113.904 199.248,114.096 C199.248,114.224 199.216,114.352 199.152,114.512 C197.456,118.448 196.336,120.208 193.744,120.208 C193.008,120.208 192.656,120.688 192.656,121.136 C192.656,121.616 193.008,122.096 193.68,122.096 C197.2,122.096 198.864,119.728 200.528,115.696 Z" id="community"></path>
                </g>
            </g>
        </g>
    </g>
</svg>